<svg xmlns="http://www.w3.org/2000/svg" viewBox="0 0 808 123" width="808" height="123" role="img" aria-label="Contribution heatmap"><text x="28" y="12" font-family="Segoe UI, system-ui, sans-serif" font-size="11" fill="#1f2328">3,584 contributions, last 364 days</text><text x="0" y="43" font-family="Segoe UI, system-ui, sans-serif" font-size="10" fill="#1f2328">Mon</text><text x="0" y="73" font-family="Segoe UI, system-ui, sans-serif" font-size="10" fill="#1f2328">Wed</text><text x="0" y="103" font-family="Segoe UI, system-ui, sans-serif" font-size="10" fill="#1f2328">Fri</text><rect x="28" y="18" width="12" height="12" rx="2" ry="2" fill="#ebedf0"><title>2025-04-28: 0 contributions</title></rect><rect x="28" y="33" width="12" height="12" rx="2" ry="2" fill="#ebedf0"><title>2025-04-29: 0 contributions</title></rect><rect x="28" y="48" width="12" height="12" rx="2" ry="2" fill="#ebedf0"><title>2025-04-30: 0 contributions</title></rect><rect x="28" y="63" width="12" height="12" rx="2" ry="2" fill="#ebedf0"><title>2025-05-01: 0 contributions</title></rect><rect x="28" y="78" width="12" height="12" rx="2" ry="2" fill="#ebedf0"><title>2025-05-02: 0 contributions</title></rect><rect x="28" y="93" width="12" height="12" rx="2" ry="2" fill="#ebedf0"><title>2025-05-03: 0 contributions</title></rect><rect x="28" y="108" width="12" height="12" rx="2" ry="2" fill="#ebedf0"><title>2025-05-04: 0 contributions</title></rect><rect x="43" y="18" width="12" height="12" rx="2" ry="2" fill="#ebedf0"><title>2025-05-05: 0 contributions</title></rect><rect x="43" y="33" width="12" height="12" rx="2" ry="2" fill="#ebedf0"><title>2025-05-06: 0 contributions</title></rect><rect x="43" y="48" width="12" height="12" rx="2" ry="2" fill="#ebedf0"><title>2025-05-07: 0 contributions</title></rect><rect x="43" y="63" width="12" height="12" rx="2" ry="2" fill="#ebedf0"><title>2025-05-08: 0 contributions</title></rect><rect x="43" y="78" width="12" height="12" rx="2" ry="2" fill="#ebedf0"><title>2025-05-09: 0 contributions</title></rect><rect x="43" y="93" width="12" height="12" rx="2" ry="2" fill="#ebedf0"><title>2025-05-10: 0 contributions</title></rect><rect x="43" y="108" width="12" height="12" rx="2" ry="2" fill="#ebedf0"><title>2025-05-11: 0 contributions</title></rect><rect x="58" y="18" width="12" height="12" rx="2" ry="2" fill="#ebedf0"><title>2025-05-12: 0 contributions</title></rect><rect x="58" y="33" width="12" height="12" rx="2" ry="2" fill="#ebedf0"><title>2025-05-13: 0 contributions</title></rect><rect x="58" y="48" width="12" height="12" rx="2" ry="2" fill="#ebedf0"><title>2025-05-14: 0 contributions</title></rect><rect x="58" y="63" width="12" height="12" rx="2" ry="2" fill="#ebedf0"><title>2025-05-15: 0 contributions</title></rect><rect x="58" y="78" width="12" height="12" rx="2" ry="2" fill="#ebedf0"><title>2025-05-16: 0 contributions</title></rect><rect x="58" y="93" width="12" height="12" rx="2" ry="2" fill="#ebedf0"><title>2025-05-17: 0 contributions</title></rect><rect x="58" y="108" width="12" height="12" rx="2" ry="2" fill="#ebedf0"><title>2025-05-18: 0 contributions</title></rect><rect x="73" y="18" width="12" height="12" rx="2" ry="2" fill="#ebedf0"><title>2025-05-19: 0 contributions</title></rect><rect x="73" y="33" width="12" height="12" rx="2" ry="2" fill="#ebedf0"><title>2025-05-20: 0 contributions</title></rect><rect x="73" y="48" width="12" height="12" rx="2" ry="2" fill="#ebedf0"><title>2025-05-21: 0 contributions</title></rect><rect x="73" y="63" width="12" height="12" rx="2" ry="2" fill="#ebedf0"><title>2025-05-22: 0 contributions</title></rect><rect x="73" y="78" width="12" height="12" rx="2" ry="2" fill="#ebedf0"><title>2025-05-23: 0 contributions</title></rect><rect x="73" y="93" width="12" height="12" rx="2" ry="2" fill="#ebedf0"><title>2025-05-24: 0 contributions</title></rect><rect x="73" y="108" width="12" height="12" rx="2" ry="2" fill="#ebedf0"><title>2025-05-25: 0 contributions</title></rect><rect x="88" y="18" width="12" height="12" rx="2" ry="2" fill="#ebedf0"><title>2025-05-26: 0 contributions</title></rect><rect x="88" y="33" width="12" height="12" rx="2" ry="2" fill="#ebedf0"><title>2025-05-27: 0 contributions</title></rect><rect x="88" y="48" width="12" height="12" rx="2" ry="2" fill="#ebedf0"><title>2025-05-28: 0 contributions</title></rect><rect x="88" y="63" width="12" height="12" rx="2" ry="2" fill="#ebedf0"><title>2025-05-29: 0 contributions</title></rect><rect x="88" y="78" width="12" height="12" rx="2" ry="2" fill="#ebedf0"><title>2025-05-30: 0 contributions</title></rect><rect x="88" y="93" width="12" height="12" rx="2" ry="2" fill="#ebedf0"><title>2025-05-31: 0 contributions</title></rect><rect x="88" y="108" width="12" height="12" rx="2" ry="2" fill="#ebedf0"><title>2025-06-01: 0 contributions</title></rect><rect x="103" y="18" width="12" height="12" rx="2" ry="2" fill="#ebedf0"><title>2025-06-02: 0 contributions</title></rect><rect x="103" y="33" width="12" height="12" rx="2" ry="2" fill="#ebedf0"><title>2025-06-03: 0 contributions</title></rect><rect x="103" y="48" width="12" height="12" rx="2" ry="2" fill="#ebedf0"><title>2025-06-04: 0 contributions</title></rect><rect x="103" y="63" width="12" height="12" rx="2" ry="2" fill="#ebedf0"><title>2025-06-05: 0 contributions</title></rect><rect x="103" y="78" width="12" height="12" rx="2" ry="2" fill="#ebedf0"><title>2025-06-06: 0 contributions</title></rect><rect x="103" y="93" width="12" height="12" rx="2" ry="2" fill="#ebedf0"><title>2025-06-07: 0 contributions</title></rect><rect x="103" y="108" width="12" height="12" rx="2" ry="2" fill="#ebedf0"><title>2025-06-08: 0 contributions</title></rect><rect x="118" y="18" width="12" height="12" rx="2" ry="2" fill="#ebedf0"><title>2025-06-09: 0 contributions</title></rect><rect x="118" y="33" width="12" height="12" rx="2" ry="2" fill="#ebedf0"><title>2025-06-10: 0 contributions</title></rect><rect x="118" y="48" width="12" height="12" rx="2" ry="2" fill="#ebedf0"><title>2025-06-11: 0 contributions</title></rect><rect x="118" y="63" width="12" height="12" rx="2" ry="2" fill="#ebedf0"><title>2025-06-12: 0 contributions</title></rect><rect x="118" y="78" width="12" height="12" rx="2" ry="2" fill="#ebedf0"><title>2025-06-13: 0 contributions</title></rect><rect x="118" y="93" width="12" height="12" rx="2" ry="2" fill="#ebedf0"><title>2025-06-14: 0 contributions</title></rect><rect x="118" y="108" width="12" height="12" rx="2" ry="2" fill="#ebedf0"><title>2025-06-15: 0 contributions</title></rect><rect x="133" y="18" width="12" height="12" rx="2" ry="2" fill="#ebedf0"><title>2025-06-16: 0 contributions</title></rect><rect x="133" y="33" width="12" height="12" rx="2" ry="2" fill="#ebedf0"><title>2025-06-17: 0 contributions</title></rect><rect x="133" y="48" width="12" height="12" rx="2" ry="2" fill="#ebedf0"><title>2025-06-18: 0 contributions</title></rect><rect x="133" y="63" width="12" height="12" rx="2" ry="2" fill="#ebedf0"><title>2025-06-19: 0 contributions</title></rect><rect x="133" y="78" width="12" height="12" rx="2" ry="2" fill="#ebedf0"><title>2025-06-20: 0 contributions</title></rect><rect x="133" y="93" width="12" height="12" rx="2" ry="2" fill="#ebedf0"><title>2025-06-21: 0 contributions</title></rect><rect x="133" y="108" width="12" height="12" rx="2" ry="2" fill="#ebedf0"><title>2025-06-22: 0 contributions</title></rect><rect x="148" y="18" width="12" height="12" rx="2" ry="2" fill="#ebedf0"><title>2025-06-23: 0 contributions</title></rect><rect x="148" y="33" width="12" height="12" rx="2" ry="2" fill="#ebedf0"><title>2025-06-24: 0 contributions</title></rect><rect x="148" y="48" width="12" height="12" rx="2" ry="2" fill="#ebedf0"><title>2025-06-25: 0 contributions</title></rect><rect x="148" y="63" width="12" height="12" rx="2" ry="2" fill="#ebedf0"><title>2025-06-26: 0 contributions</title></rect><rect x="148" y="78" width="12" height="12" rx="2" ry="2" fill="#ebedf0"><title>2025-06-27: 0 contributions</title></rect><rect x="148" y="93" width="12" height="12" rx="2" ry="2" fill="#ebedf0"><title>2025-06-28: 0 contributions</title></rect><rect x="148" y="108" width="12" height="12" rx="2" ry="2" fill="#ebedf0"><title>2025-06-29: 0 contributions</title></rect><rect x="163" y="18" width="12" height="12" rx="2" ry="2" fill="#ebedf0"><title>2025-06-30: 0 contributions</title></rect><rect x="163" y="33" width="12" height="12" rx="2" ry="2" fill="#ebedf0"><title>2025-07-01: 0 contributions</title></rect><rect x="163" y="48" width="12" height="12" rx="2" ry="2" fill="#ebedf0"><title>2025-07-02: 0 contributions</title></rect><rect x="163" y="63" width="12" height="12" rx="2" ry="2" fill="#ebedf0"><title>2025-07-03: 0 contributions</title></rect><rect x="163" y="78" width="12" height="12" rx="2" ry="2" fill="#ebedf0"><title>2025-07-04: 0 contributions</title></rect><rect x="163" y="93" width="12" height="12" rx="2" ry="2" fill="#ebedf0"><title>2025-07-05: 0 contributions</title></rect><rect x="163" y="108" width="12" height="12" rx="2" ry="2" fill="#ebedf0"><title>2025-07-06: 0 contributions</title></rect><rect x="178" y="18" width="12" height="12" rx="2" ry="2" fill="#ebedf0"><title>2025-07-07: 0 contributions</title></rect><rect x="178" y="33" width="12" height="12" rx="2" ry="2" fill="#ebedf0"><title>2025-07-08: 0 contributions</title></rect><rect x="178" y="48" width="12" height="12" rx="2" ry="2" fill="#ebedf0"><title>2025-07-09: 0 contributions</title></rect><rect x="178" y="63" width="12" height="12" rx="2" ry="2" fill="#ebedf0"><title>2025-07-10: 0 contributions</title></rect><rect x="178" y="78" width="12" height="12" rx="2" ry="2" fill="#ebedf0"><title>2025-07-11: 0 contributions</title></rect><rect x="178" y="93" width="12" height="12" rx="2" ry="2" fill="#ebedf0"><title>2025-07-12: 0 contributions</title></rect><rect x="178" y="108" width="12" height="12" rx="2" ry="2" fill="#ebedf0"><title>2025-07-13: 0 contributions</title></rect><rect x="193" y="18" width="12" height="12" rx="2" ry="2" fill="#ebedf0"><title>2025-07-14: 0 contributions</title></rect><rect x="193" y="33" width="12" height="12" rx="2" ry="2" fill="#ebedf0"><title>2025-07-15: 0 contributions</title></rect><rect x="193" y="48" width="12" height="12" rx="2" ry="2" fill="#ebedf0"><title>2025-07-16: 0 contributions</title></rect><rect x="193" y="63" width="12" height="12" rx="2" ry="2" fill="#ebedf0"><title>2025-07-17: 0 contributions</title></rect><rect x="193" y="78" width="12" height="12" rx="2" ry="2" fill="#ebedf0"><title>2025-07-18: 0 contributions</title></rect><rect x="193" y="93" width="12" height="12" rx="2" ry="2" fill="#ebedf0"><title>2025-07-19: 0 contributions</title></rect><rect x="193" y="108" width="12" height="12" rx="2" ry="2" fill="#ebedf0"><title>2025-07-20: 0 contributions</title></rect><rect x="208" y="18" width="12" height="12" rx="2" ry="2" fill="#ebedf0"><title>2025-07-21: 0 contributions</title></rect><rect x="208" y="33" width="12" height="12" rx="2" ry="2" fill="#ebedf0"><title>2025-07-22: 0 contributions</title></rect><rect x="208" y="48" width="12" height="12" rx="2" ry="2" fill="#ebedf0"><title>2025-07-23: 0 contributions</title></rect><rect x="208" y="63" width="12" height="12" rx="2" ry="2" fill="#ebedf0"><title>2025-07-24: 0 contributions</title></rect><rect x="208" y="78" width="12" height="12" rx="2" ry="2" fill="#ebedf0"><title>2025-07-25: 0 contributions</title></rect><rect x="208" y="93" width="12" height="12" rx="2" ry="2" fill="#ebedf0"><title>2025-07-26: 0 contributions</title></rect><rect x="208" y="108" width="12" height="12" rx="2" ry="2" fill="#ebedf0"><title>2025-07-27: 0 contributions</title></rect><rect x="223" y="18" width="12" height="12" rx="2" ry="2" fill="#ebedf0"><title>2025-07-28: 0 contributions</title></rect><rect x="223" y="33" width="12" height="12" rx="2" ry="2" fill="#9be9a8"><title>2025-07-29: 3 contributions</title></rect><rect x="223" y="48" width="12" height="12" rx="2" ry="2" fill="#ebedf0"><title>2025-07-30: 0 contributions</title></rect><rect x="223" y="63" width="12" height="12" rx="2" ry="2" fill="#9be9a8"><title>2025-07-31: 22 contributions</title></rect><rect x="223" y="78" width="12" height="12" rx="2" ry="2" fill="#40c463"><title>2025-08-01: 63 contributions</title></rect><rect x="223" y="93" width="12" height="12" rx="2" ry="2" fill="#40c463"><title>2025-08-02: 35 contributions</title></rect><rect x="223" y="108" width="12" height="12" rx="2" ry="2" fill="#216e39"><title>2025-08-03: 120 contributions</title></rect><rect x="238" y="18" width="12" height="12" rx="2" ry="2" fill="#9be9a8"><title>2025-08-04: 17 contributions</title></rect><rect x="238" y="33" width="12" height="12" rx="2" ry="2" fill="#30a14e"><title>2025-08-05: 79 contributions</title></rect><rect x="238" y="48" width="12" height="12" rx="2" ry="2" fill="#216e39"><title>2025-08-06: 101 contributions</title></rect><rect x="238" y="63" width="12" height="12" rx="2" ry="2" fill="#216e39"><title>2025-08-07: 114 contributions</title></rect><rect x="238" y="78" width="12" height="12" rx="2" ry="2" fill="#30a14e"><title>2025-08-08: 68 contributions</title></rect><rect x="238" y="93" width="12" height="12" rx="2" ry="2" fill="#216e39"><title>2025-08-09: 115 contributions</title></rect><rect x="238" y="108" width="12" height="12" rx="2" ry="2" fill="#9be9a8"><title>2025-08-10: 10 contributions</title></rect><rect x="253" y="18" width="12" height="12" rx="2" ry="2" fill="#9be9a8"><title>2025-08-11: 15 contributions</title></rect><rect x="253" y="33" width="12" height="12" rx="2" ry="2" fill="#40c463"><title>2025-08-12: 33 contributions</title></rect><rect x="253" y="48" width="12" height="12" rx="2" ry="2" fill="#ebedf0"><title>2025-08-13: 0 contributions</title></rect><rect x="253" y="63" width="12" height="12" rx="2" ry="2" fill="#9be9a8"><title>2025-08-14: 13 contributions</title></rect><rect x="253" y="78" width="12" height="12" rx="2" ry="2" fill="#9be9a8"><title>2025-08-15: 17 contributions</title></rect><rect x="253" y="93" width="12" height="12" rx="2" ry="2" fill="#ebedf0"><title>2025-08-16: 0 contributions</title></rect><rect x="253" y="108" width="12" height="12" rx="2" ry="2" fill="#9be9a8"><title>2025-08-17: 2 contributions</title></rect><rect x="268" y="18" width="12" height="12" rx="2" ry="2" fill="#ebedf0"><title>2025-08-18: 0 contributions</title></rect><rect x="268" y="33" width="12" height="12" rx="2" ry="2" fill="#9be9a8"><title>2025-08-19: 3 contributions</title></rect><rect x="268" y="48" width="12" height="12" rx="2" ry="2" fill="#ebedf0"><title>2025-08-20: 0 contributions</title></rect><rect x="268" y="63" width="12" height="12" rx="2" ry="2" fill="#ebedf0"><title>2025-08-21: 0 contributions</title></rect><rect x="268" y="78" width="12" height="12" rx="2" ry="2" fill="#ebedf0"><title>2025-08-22: 0 contributions</title></rect><rect x="268" y="93" width="12" height="12" rx="2" ry="2" fill="#ebedf0"><title>2025-08-23: 0 contributions</title></rect><rect x="268" y="108" width="12" height="12" rx="2" ry="2" fill="#ebedf0"><title>2025-08-24: 0 contributions</title></rect><rect x="283" y="18" width="12" height="12" rx="2" ry="2" fill="#9be9a8"><title>2025-08-25: 1 contribution</title></rect><rect x="283" y="33" width="12" height="12" rx="2" ry="2" fill="#9be9a8"><title>2025-08-26: 30 contributions</title></rect><rect x="283" y="48" width="12" height="12" rx="2" ry="2" fill="#9be9a8"><title>2025-08-27: 9 contributions</title></rect><rect x="283" y="63" width="12" height="12" rx="2" ry="2" fill="#ebedf0"><title>2025-08-28: 0 contributions</title></rect><rect x="283" y="78" width="12" height="12" rx="2" ry="2" fill="#9be9a8"><title>2025-08-29: 21 contributions</title></rect><rect x="283" y="93" width="12" height="12" rx="2" ry="2" fill="#9be9a8"><title>2025-08-30: 15 contributions</title></rect><rect x="283" y="108" width="12" height="12" rx="2" ry="2" fill="#ebedf0"><title>2025-08-31: 0 contributions</title></rect><rect x="298" y="18" width="12" height="12" rx="2" ry="2" fill="#ebedf0"><title>2025-09-01: 0 contributions</title></rect><rect x="298" y="33" width="12" height="12" rx="2" ry="2" fill="#ebedf0"><title>2025-09-02: 0 contributions</title></rect><rect x="298" y="48" width="12" height="12" rx="2" ry="2" fill="#ebedf0"><title>2025-09-03: 0 contributions</title></rect><rect x="298" y="63" width="12" height="12" rx="2" ry="2" fill="#9be9a8"><title>2025-09-04: 6 contributions</title></rect><rect x="298" y="78" width="12" height="12" rx="2" ry="2" fill="#9be9a8"><title>2025-09-05: 7 contributions</title></rect><rect x="298" y="93" width="12" height="12" rx="2" ry="2" fill="#9be9a8"><title>2025-09-06: 2 contributions</title></rect><rect x="298" y="108" width="12" height="12" rx="2" ry="2" fill="#ebedf0"><title>2025-09-07: 0 contributions</title></rect><rect x="313" y="18" width="12" height="12" rx="2" ry="2" fill="#ebedf0"><title>2025-09-08: 0 contributions</title></rect><rect x="313" y="33" width="12" height="12" rx="2" ry="2" fill="#ebedf0"><title>2025-09-09: 0 contributions</title></rect><rect x="313" y="48" width="12" height="12" rx="2" ry="2" fill="#ebedf0"><title>2025-09-10: 0 contributions</title></rect><rect x="313" y="63" width="12" height="12" rx="2" ry="2" fill="#ebedf0"><title>2025-09-11: 0 contributions</title></rect><rect x="313" y="78" width="12" height="12" rx="2" ry="2" fill="#ebedf0"><title>2025-09-12: 0 contributions</title></rect><rect x="313" y="93" width="12" height="12" rx="2" ry="2" fill="#9be9a8"><title>2025-09-13: 13 contributions</title></rect><rect x="313" y="108" width="12" height="12" rx="2" ry="2" fill="#9be9a8"><title>2025-09-14: 6 contributions</title></rect><rect x="328" y="18" width="12" height="12" rx="2" ry="2" fill="#ebedf0"><title>2025-09-15: 0 contributions</title></rect><rect x="328" y="33" width="12" height="12" rx="2" ry="2" fill="#ebedf0"><title>2025-09-16: 0 contributions</title></rect><rect x="328" y="48" width="12" height="12" rx="2" ry="2" fill="#ebedf0"><title>2025-09-17: 0 contributions</title></rect><rect x="328" y="63" width="12" height="12" rx="2" ry="2" fill="#ebedf0"><title>2025-09-18: 0 contributions</title></rect><rect x="328" y="78" width="12" height="12" rx="2" ry="2" fill="#ebedf0"><title>2025-09-19: 0 contributions</title></rect><rect x="328" y="93" width="12" height="12" rx="2" ry="2" fill="#ebedf0"><title>2025-09-20: 0 contributions</title></rect><rect x="328" y="108" width="12" height="12" rx="2" ry="2" fill="#ebedf0"><title>2025-09-21: 0 contributions</title></rect><rect x="343" y="18" width="12" height="12" rx="2" ry="2" fill="#ebedf0"><title>2025-09-22: 0 contributions</title></rect><rect x="343" y="33" width="12" height="12" rx="2" ry="2" fill="#ebedf0"><title>2025-09-23: 0 contributions</title></rect><rect x="343" y="48" width="12" height="12" rx="2" ry="2" fill="#ebedf0"><title>2025-09-24: 0 contributions</title></rect><rect x="343" y="63" width="12" height="12" rx="2" ry="2" fill="#ebedf0"><title>2025-09-25: 0 contributions</title></rect><rect x="343" y="78" width="12" height="12" rx="2" ry="2" fill="#ebedf0"><title>2025-09-26: 0 contributions</title></rect><rect x="343" y="93" width="12" height="12" rx="2" ry="2" fill="#ebedf0"><title>2025-09-27: 0 contributions</title></rect><rect x="343" y="108" width="12" height="12" rx="2" ry="2" fill="#ebedf0"><title>2025-09-28: 0 contributions</title></rect><rect x="358" y="18" width="12" height="12" rx="2" ry="2" fill="#ebedf0"><title>2025-09-29: 0 contributions</title></rect><rect x="358" y="33" width="12" height="12" rx="2" ry="2" fill="#9be9a8"><title>2025-09-30: 27 contributions</title></rect><rect x="358" y="48" width="12" height="12" rx="2" ry="2" fill="#9be9a8"><title>2025-10-01: 22 contributions</title></rect><rect x="358" y="63" width="12" height="12" rx="2" ry="2" fill="#9be9a8"><title>2025-10-02: 4 contributions</title></rect><rect x="358" y="78" width="12" height="12" rx="2" ry="2" fill="#9be9a8"><title>2025-10-03: 5 contributions</title></rect><rect x="358" y="93" width="12" height="12" rx="2" ry="2" fill="#ebedf0"><title>2025-10-04: 0 contributions</title></rect><rect x="358" y="108" width="12" height="12" rx="2" ry="2" fill="#ebedf0"><title>2025-10-05: 0 contributions</title></rect><rect x="373" y="18" width="12" height="12" rx="2" ry="2" fill="#9be9a8"><title>2025-10-06: 1 contribution</title></rect><rect x="373" y="33" width="12" height="12" rx="2" ry="2" fill="#9be9a8"><title>2025-10-07: 3 contributions</title></rect><rect x="373" y="48" width="12" height="12" rx="2" ry="2" fill="#30a14e"><title>2025-10-08: 66 contributions</title></rect><rect x="373" y="63" width="12" height="12" rx="2" ry="2" fill="#9be9a8"><title>2025-10-09: 9 contributions</title></rect><rect x="373" y="78" width="12" height="12" rx="2" ry="2" fill="#ebedf0"><title>2025-10-10: 0 contributions</title></rect><rect x="373" y="93" width="12" height="12" rx="2" ry="2" fill="#ebedf0"><title>2025-10-11: 0 contributions</title></rect><rect x="373" y="108" width="12" height="12" rx="2" ry="2" fill="#ebedf0"><title>2025-10-12: 0 contributions</title></rect><rect x="388" y="18" width="12" height="12" rx="2" ry="2" fill="#ebedf0"><title>2025-10-13: 0 contributions</title></rect><rect x="388" y="33" width="12" height="12" rx="2" ry="2" fill="#ebedf0"><title>2025-10-14: 0 contributions</title></rect><rect x="388" y="48" width="12" height="12" rx="2" ry="2" fill="#ebedf0"><title>2025-10-15: 0 contributions</title></rect><rect x="388" y="63" width="12" height="12" rx="2" ry="2" fill="#9be9a8"><title>2025-10-16: 5 contributions</title></rect><rect x="388" y="78" width="12" height="12" rx="2" ry="2" fill="#ebedf0"><title>2025-10-17: 0 contributions</title></rect><rect x="388" y="93" width="12" height="12" rx="2" ry="2" fill="#9be9a8"><title>2025-10-18: 1 contribution</title></rect><rect x="388" y="108" width="12" height="12" rx="2" ry="2" fill="#9be9a8"><title>2025-10-19: 18 contributions</title></rect><rect x="403" y="18" width="12" height="12" rx="2" ry="2" fill="#40c463"><title>2025-10-20: 49 contributions</title></rect><rect x="403" y="33" width="12" height="12" rx="2" ry="2" fill="#40c463"><title>2025-10-21: 40 contributions</title></rect><rect x="403" y="48" width="12" height="12" rx="2" ry="2" fill="#9be9a8"><title>2025-10-22: 17 contributions</title></rect><rect x="403" y="63" width="12" height="12" rx="2" ry="2" fill="#9be9a8"><title>2025-10-23: 1 contribution</title></rect><rect x="403" y="78" width="12" height="12" rx="2" ry="2" fill="#ebedf0"><title>2025-10-24: 0 contributions</title></rect><rect x="403" y="93" width="12" height="12" rx="2" ry="2" fill="#ebedf0"><title>2025-10-25: 0 contributions</title></rect><rect x="403" y="108" width="12" height="12" rx="2" ry="2" fill="#ebedf0"><title>2025-10-26: 0 contributions</title></rect><rect x="418" y="18" width="12" height="12" rx="2" ry="2" fill="#9be9a8"><title>2025-10-27: 6 contributions</title></rect><rect x="418" y="33" width="12" height="12" rx="2" ry="2" fill="#ebedf0"><title>2025-10-28: 0 contributions</title></rect><rect x="418" y="48" width="12" height="12" rx="2" ry="2" fill="#ebedf0"><title>2025-10-29: 0 contributions</title></rect><rect x="418" y="63" width="12" height="12" rx="2" ry="2" fill="#9be9a8"><title>2025-10-30: 2 contributions</title></rect><rect x="418" y="78" width="12" height="12" rx="2" ry="2" fill="#9be9a8"><title>2025-10-31: 2 contributions</title></rect><rect x="418" y="93" width="12" height="12" rx="2" ry="2" fill="#ebedf0"><title>2025-11-01: 0 contributions</title></rect><rect x="418" y="108" width="12" height="12" rx="2" ry="2" fill="#ebedf0"><title>2025-11-02: 0 contributions</title></rect><rect x="433" y="18" width="12" height="12" rx="2" ry="2" fill="#ebedf0"><title>2025-11-03: 0 contributions</title></rect><rect x="433" y="33" width="12" height="12" rx="2" ry="2" fill="#ebedf0"><title>2025-11-04: 0 contributions</title></rect><rect x="433" y="48" width="12" height="12" rx="2" ry="2" fill="#ebedf0"><title>2025-11-05: 0 contributions</title></rect><rect x="433" y="63" width="12" height="12" rx="2" ry="2" fill="#9be9a8"><title>2025-11-06: 1 contribution</title></rect><rect x="433" y="78" width="12" height="12" rx="2" ry="2" fill="#ebedf0"><title>2025-11-07: 0 contributions</title></rect><rect x="433" y="93" width="12" height="12" rx="2" ry="2" fill="#ebedf0"><title>2025-11-08: 0 contributions</title></rect><rect x="433" y="108" width="12" height="12" rx="2" ry="2" fill="#9be9a8"><title>2025-11-09: 4 contributions</title></rect><rect x="448" y="18" width="12" height="12" rx="2" ry="2" fill="#ebedf0"><title>2025-11-10: 0 contributions</title></rect><rect x="448" y="33" width="12" height="12" rx="2" ry="2" fill="#9be9a8"><title>2025-11-11: 6 contributions</title></rect><rect x="448" y="48" width="12" height="12" rx="2" ry="2" fill="#ebedf0"><title>2025-11-12: 0 contributions</title></rect><rect x="448" y="63" width="12" height="12" rx="2" ry="2" fill="#ebedf0"><title>2025-11-13: 0 contributions</title></rect><rect x="448" y="78" width="12" height="12" rx="2" ry="2" fill="#ebedf0"><title>2025-11-14: 0 contributions</title></rect><rect x="448" y="93" width="12" height="12" rx="2" ry="2" fill="#9be9a8"><title>2025-11-15: 18 contributions</title></rect><rect x="448" y="108" width="12" height="12" rx="2" ry="2" fill="#40c463"><title>2025-11-16: 56 contributions</title></rect><rect x="463" y="18" width="12" height="12" rx="2" ry="2" fill="#40c463"><title>2025-11-17: 36 contributions</title></rect><rect x="463" y="33" width="12" height="12" rx="2" ry="2" fill="#9be9a8"><title>2025-11-18: 16 contributions</title></rect><rect x="463" y="48" width="12" height="12" rx="2" ry="2" fill="#9be9a8"><title>2025-11-19: 6 contributions</title></rect><rect x="463" y="63" width="12" height="12" rx="2" ry="2" fill="#9be9a8"><title>2025-11-20: 12 contributions</title></rect><rect x="463" y="78" width="12" height="12" rx="2" ry="2" fill="#9be9a8"><title>2025-11-21: 8 contributions</title></rect><rect x="463" y="93" width="12" height="12" rx="2" ry="2" fill="#9be9a8"><title>2025-11-22: 21 contributions</title></rect><rect x="463" y="108" width="12" height="12" rx="2" ry="2" fill="#ebedf0"><title>2025-11-23: 0 contributions</title></rect><rect x="478" y="18" width="12" height="12" rx="2" ry="2" fill="#9be9a8"><title>2025-11-24: 4 contributions</title></rect><rect x="478" y="33" width="12" height="12" rx="2" ry="2" fill="#9be9a8"><title>2025-11-25: 1 contribution</title></rect><rect x="478" y="48" width="12" height="12" rx="2" ry="2" fill="#9be9a8"><title>2025-11-26: 2 contributions</title></rect><rect x="478" y="63" width="12" height="12" rx="2" ry="2" fill="#ebedf0"><title>2025-11-27: 0 contributions</title></rect><rect x="478" y="78" width="12" height="12" rx="2" ry="2" fill="#ebedf0"><title>2025-11-28: 0 contributions</title></rect><rect x="478" y="93" width="12" height="12" rx="2" ry="2" fill="#ebedf0"><title>2025-11-29: 0 contributions</title></rect><rect x="478" y="108" width="12" height="12" rx="2" ry="2" fill="#30a14e"><title>2025-11-30: 86 contributions</title></rect><rect x="493" y="18" width="12" height="12" rx="2" ry="2" fill="#9be9a8"><title>2025-12-01: 10 contributions</title></rect><rect x="493" y="33" width="12" height="12" rx="2" ry="2" fill="#9be9a8"><title>2025-12-02: 4 contributions</title></rect><rect x="493" y="48" width="12" height="12" rx="2" ry="2" fill="#9be9a8"><title>2025-12-03: 8 contributions</title></rect><rect x="493" y="63" width="12" height="12" rx="2" ry="2" fill="#9be9a8"><title>2025-12-04: 2 contributions</title></rect><rect x="493" y="78" width="12" height="12" rx="2" ry="2" fill="#9be9a8"><title>2025-12-05: 9 contributions</title></rect><rect x="493" y="93" width="12" height="12" rx="2" ry="2" fill="#40c463"><title>2025-12-06: 35 contributions</title></rect><rect x="493" y="108" width="12" height="12" rx="2" ry="2" fill="#40c463"><title>2025-12-07: 47 contributions</title></rect><rect x="508" y="18" width="12" height="12" rx="2" ry="2" fill="#9be9a8"><title>2025-12-08: 9 contributions</title></rect><rect x="508" y="33" width="12" height="12" rx="2" ry="2" fill="#9be9a8"><title>2025-12-09: 15 contributions</title></rect><rect x="508" y="48" width="12" height="12" rx="2" ry="2" fill="#9be9a8"><title>2025-12-10: 18 contributions</title></rect><rect x="508" y="63" width="12" height="12" rx="2" ry="2" fill="#9be9a8"><title>2025-12-11: 26 contributions</title></rect><rect x="508" y="78" width="12" height="12" rx="2" ry="2" fill="#9be9a8"><title>2025-12-12: 16 contributions</title></rect><rect x="508" y="93" width="12" height="12" rx="2" ry="2" fill="#9be9a8"><title>2025-12-13: 9 contributions</title></rect><rect x="508" y="108" width="12" height="12" rx="2" ry="2" fill="#9be9a8"><title>2025-12-14: 23 contributions</title></rect><rect x="523" y="18" width="12" height="12" rx="2" ry="2" fill="#ebedf0"><title>2025-12-15: 0 contributions</title></rect><rect x="523" y="33" width="12" height="12" rx="2" ry="2" fill="#9be9a8"><title>2025-12-16: 15 contributions</title></rect><rect x="523" y="48" width="12" height="12" rx="2" ry="2" fill="#9be9a8"><title>2025-12-17: 10 contributions</title></rect><rect x="523" y="63" width="12" height="12" rx="2" ry="2" fill="#9be9a8"><title>2025-12-18: 8 contributions</title></rect><rect x="523" y="78" width="12" height="12" rx="2" ry="2" fill="#9be9a8"><title>2025-12-19: 16 contributions</title></rect><rect x="523" y="93" width="12" height="12" rx="2" ry="2" fill="#9be9a8"><title>2025-12-20: 30 contributions</title></rect><rect x="523" y="108" width="12" height="12" rx="2" ry="2" fill="#9be9a8"><title>2025-12-21: 24 contributions</title></rect><rect x="538" y="18" width="12" height="12" rx="2" ry="2" fill="#9be9a8"><title>2025-12-22: 28 contributions</title></rect><rect x="538" y="33" width="12" height="12" rx="2" ry="2" fill="#9be9a8"><title>2025-12-23: 29 contributions</title></rect><rect x="538" y="48" width="12" height="12" rx="2" ry="2" fill="#9be9a8"><title>2025-12-24: 17 contributions</title></rect><rect x="538" y="63" width="12" height="12" rx="2" ry="2" fill="#9be9a8"><title>2025-12-25: 19 contributions</title></rect><rect x="538" y="78" width="12" height="12" rx="2" ry="2" fill="#40c463"><title>2025-12-26: 40 contributions</title></rect><rect x="538" y="93" width="12" height="12" rx="2" ry="2" fill="#9be9a8"><title>2025-12-27: 6 contributions</title></rect><rect x="538" y="108" width="12" height="12" rx="2" ry="2" fill="#9be9a8"><title>2025-12-28: 18 contributions</title></rect><rect x="553" y="18" width="12" height="12" rx="2" ry="2" fill="#9be9a8"><title>2025-12-29: 21 contributions</title></rect><rect x="553" y="33" width="12" height="12" rx="2" ry="2" fill="#9be9a8"><title>2025-12-30: 26 contributions</title></rect><rect x="553" y="48" width="12" height="12" rx="2" ry="2" fill="#9be9a8"><title>2025-12-31: 26 contributions</title></rect><rect x="553" y="63" width="12" height="12" rx="2" ry="2" fill="#9be9a8"><title>2026-01-01: 28 contributions</title></rect><rect x="553" y="78" width="12" height="12" rx="2" ry="2" fill="#9be9a8"><title>2026-01-02: 15 contributions</title></rect><rect x="553" y="93" width="12" height="12" rx="2" ry="2" fill="#9be9a8"><title>2026-01-03: 9 contributions</title></rect><rect x="553" y="108" width="12" height="12" rx="2" ry="2" fill="#9be9a8"><title>2026-01-04: 2 contributions</title></rect><rect x="568" y="18" width="12" height="12" rx="2" ry="2" fill="#9be9a8"><title>2026-01-05: 14 contributions</title></rect><rect x="568" y="33" width="12" height="12" rx="2" ry="2" fill="#40c463"><title>2026-01-06: 36 contributions</title></rect><rect x="568" y="48" width="12" height="12" rx="2" ry="2" fill="#30a14e"><title>2026-01-07: 73 contributions</title></rect><rect x="568" y="63" width="12" height="12" rx="2" ry="2" fill="#40c463"><title>2026-01-08: 37 contributions</title></rect><rect x="568" y="78" width="12" height="12" rx="2" ry="2" fill="#40c463"><title>2026-01-09: 63 contributions</title></rect><rect x="568" y="93" width="12" height="12" rx="2" ry="2" fill="#9be9a8"><title>2026-01-10: 6 contributions</title></rect><rect x="568" y="108" width="12" height="12" rx="2" ry="2" fill="#9be9a8"><title>2026-01-11: 2 contributions</title></rect><rect x="583" y="18" width="12" height="12" rx="2" ry="2" fill="#ebedf0"><title>2026-01-12: 0 contributions</title></rect><rect x="583" y="33" width="12" height="12" rx="2" ry="2" fill="#9be9a8"><title>2026-01-13: 1 contribution</title></rect><rect x="583" y="48" width="12" height="12" rx="2" ry="2" fill="#9be9a8"><title>2026-01-14: 2 contributions</title></rect><rect x="583" y="63" width="12" height="12" rx="2" ry="2" fill="#9be9a8"><title>2026-01-15: 5 contributions</title></rect><rect x="583" y="78" width="12" height="12" rx="2" ry="2" fill="#30a14e"><title>2026-01-16: 94 contributions</title></rect><rect x="583" y="93" width="12" height="12" rx="2" ry="2" fill="#216e39"><title>2026-01-17: 104 contributions</title></rect><rect x="583" y="108" width="12" height="12" rx="2" ry="2" fill="#216e39"><title>2026-01-18: 132 contributions</title></rect><rect x="598" y="18" width="12" height="12" rx="2" ry="2" fill="#30a14e"><title>2026-01-19: 85 contributions</title></rect><rect x="598" y="33" width="12" height="12" rx="2" ry="2" fill="#9be9a8"><title>2026-01-20: 31 contributions</title></rect><rect x="598" y="48" width="12" height="12" rx="2" ry="2" fill="#9be9a8"><title>2026-01-21: 1 contribution</title></rect><rect x="598" y="63" width="12" height="12" rx="2" ry="2" fill="#ebedf0"><title>2026-01-22: 0 contributions</title></rect><rect x="598" y="78" width="12" height="12" rx="2" ry="2" fill="#40c463"><title>2026-01-23: 37 contributions</title></rect><rect x="598" y="93" width="12" height="12" rx="2" ry="2" fill="#40c463"><title>2026-01-24: 58 contributions</title></rect><rect x="598" y="108" width="12" height="12" rx="2" ry="2" fill="#9be9a8"><title>2026-01-25: 32 contributions</title></rect><rect x="613" y="18" width="12" height="12" rx="2" ry="2" fill="#30a14e"><title>2026-01-26: 82 contributions</title></rect><rect x="613" y="33" width="12" height="12" rx="2" ry="2" fill="#9be9a8"><title>2026-01-27: 6 contributions</title></rect><rect x="613" y="48" width="12" height="12" rx="2" ry="2" fill="#9be9a8"><title>2026-01-28: 12 contributions</title></rect><rect x="613" y="63" width="12" height="12" rx="2" ry="2" fill="#40c463"><title>2026-01-29: 37 contributions</title></rect><rect x="613" y="78" width="12" height="12" rx="2" ry="2" fill="#40c463"><title>2026-01-30: 41 contributions</title></rect><rect x="613" y="93" width="12" height="12" rx="2" ry="2" fill="#40c463"><title>2026-01-31: 40 contributions</title></rect><rect x="613" y="108" width="12" height="12" rx="2" ry="2" fill="#9be9a8"><title>2026-02-01: 14 contributions</title></rect><rect x="628" y="18" width="12" height="12" rx="2" ry="2" fill="#9be9a8"><title>2026-02-02: 23 contributions</title></rect><rect x="628" y="33" width="12" height="12" rx="2" ry="2" fill="#9be9a8"><title>2026-02-03: 14 contributions</title></rect><rect x="628" y="48" width="12" height="12" rx="2" ry="2" fill="#9be9a8"><title>2026-02-04: 9 contributions</title></rect><rect x="628" y="63" width="12" height="12" rx="2" ry="2" fill="#ebedf0"><title>2026-02-05: 0 contributions</title></rect><rect x="628" y="78" width="12" height="12" rx="2" ry="2" fill="#ebedf0"><title>2026-02-06: 0 contributions</title></rect><rect x="628" y="93" width="12" height="12" rx="2" ry="2" fill="#9be9a8"><title>2026-02-07: 8 contributions</title></rect><rect x="628" y="108" width="12" height="12" rx="2" ry="2" fill="#9be9a8"><title>2026-02-08: 9 contributions</title></rect><rect x="643" y="18" width="12" height="12" rx="2" ry="2" fill="#ebedf0"><title>2026-02-09: 0 contributions</title></rect><rect x="643" y="33" width="12" height="12" rx="2" ry="2" fill="#ebedf0"><title>2026-02-10: 0 contributions</title></rect><rect x="643" y="48" width="12" height="12" rx="2" ry="2" fill="#ebedf0"><title>2026-02-11: 0 contributions</title></rect><rect x="643" y="63" width="12" height="12" rx="2" ry="2" fill="#ebedf0"><title>2026-02-12: 0 contributions</title></rect><rect x="643" y="78" width="12" height="12" rx="2" ry="2" fill="#9be9a8"><title>2026-02-13: 3 contributions</title></rect><rect x="643" y="93" width="12" height="12" rx="2" ry="2" fill="#ebedf0"><title>2026-02-14: 0 contributions</title></rect><rect x="643" y="108" width="12" height="12" rx="2" ry="2" fill="#ebedf0"><title>2026-02-15: 0 contributions</title></rect><rect x="658" y="18" width="12" height="12" rx="2" ry="2" fill="#ebedf0"><title>2026-02-16: 0 contributions</title></rect><rect x="658" y="33" width="12" height="12" rx="2" ry="2" fill="#ebedf0"><title>2026-02-17: 0 contributions</title></rect><rect x="658" y="48" width="12" height="12" rx="2" ry="2" fill="#ebedf0"><title>2026-02-18: 0 contributions</title></rect><rect x="658" y="63" width="12" height="12" rx="2" ry="2" fill="#9be9a8"><title>2026-02-19: 6 contributions</title></rect><rect x="658" y="78" width="12" height="12" rx="2" ry="2" fill="#9be9a8"><title>2026-02-20: 2 contributions</title></rect><rect x="658" y="93" width="12" height="12" rx="2" ry="2" fill="#ebedf0"><title>2026-02-21: 0 contributions</title></rect><rect x="658" y="108" width="12" height="12" rx="2" ry="2" fill="#ebedf0"><title>2026-02-22: 0 contributions</title></rect><rect x="673" y="18" width="12" height="12" rx="2" ry="2" fill="#ebedf0"><title>2026-02-23: 0 contributions</title></rect><rect x="673" y="33" width="12" height="12" rx="2" ry="2" fill="#ebedf0"><title>2026-02-24: 0 contributions</title></rect><rect x="673" y="48" width="12" height="12" rx="2" ry="2" fill="#ebedf0"><title>2026-02-25: 0 contributions</title></rect><rect x="673" y="63" width="12" height="12" rx="2" ry="2" fill="#9be9a8"><title>2026-02-26: 2 contributions</title></rect><rect x="673" y="78" width="12" height="12" rx="2" ry="2" fill="#ebedf0"><title>2026-02-27: 0 contributions</title></rect><rect x="673" y="93" width="12" height="12" rx="2" ry="2" fill="#ebedf0"><title>2026-02-28: 0 contributions</title></rect><rect x="673" y="108" width="12" height="12" rx="2" ry="2" fill="#40c463"><title>2026-03-01: 45 contributions</title></rect><rect x="688" y="18" width="12" height="12" rx="2" ry="2" fill="#9be9a8"><title>2026-03-02: 4 contributions</title></rect><rect x="688" y="33" width="12" height="12" rx="2" ry="2" fill="#9be9a8"><title>2026-03-03: 3 contributions</title></rect><rect x="688" y="48" width="12" height="12" rx="2" ry="2" fill="#ebedf0"><title>2026-03-04: 0 contributions</title></rect><rect x="688" y="63" width="12" height="12" rx="2" ry="2" fill="#ebedf0"><title>2026-03-05: 0 contributions</title></rect><rect x="688" y="78" width="12" height="12" rx="2" ry="2" fill="#ebedf0"><title>2026-03-06: 0 contributions</title></rect><rect x="688" y="93" width="12" height="12" rx="2" ry="2" fill="#ebedf0"><title>2026-03-07: 0 contributions</title></rect><rect x="688" y="108" width="12" height="12" rx="2" ry="2" fill="#ebedf0"><title>2026-03-08: 0 contributions</title></rect><rect x="703" y="18" width="12" height="12" rx="2" ry="2" fill="#ebedf0"><title>2026-03-09: 0 contributions</title></rect><rect x="703" y="33" width="12" height="12" rx="2" ry="2" fill="#ebedf0"><title>2026-03-10: 0 contributions</title></rect><rect x="703" y="48" width="12" height="12" rx="2" ry="2" fill="#ebedf0"><title>2026-03-11: 0 contributions</title></rect><rect x="703" y="63" width="12" height="12" rx="2" ry="2" fill="#ebedf0"><title>2026-03-12: 0 contributions</title></rect><rect x="703" y="78" width="12" height="12" rx="2" ry="2" fill="#ebedf0"><title>2026-03-13: 0 contributions</title></rect><rect x="703" y="93" width="12" height="12" rx="2" ry="2" fill="#ebedf0"><title>2026-03-14: 0 contributions</title></rect><rect x="703" y="108" width="12" height="12" rx="2" ry="2" fill="#ebedf0"><title>2026-03-15: 0 contributions</title></rect><rect x="718" y="18" width="12" height="12" rx="2" ry="2" fill="#ebedf0"><title>2026-03-16: 0 contributions</title></rect><rect x="718" y="33" width="12" height="12" rx="2" ry="2" fill="#ebedf0"><title>2026-03-17: 0 contributions</title></rect><rect x="718" y="48" width="12" height="12" rx="2" ry="2" fill="#ebedf0"><title>2026-03-18: 0 contributions</title></rect><rect x="718" y="63" width="12" height="12" rx="2" ry="2" fill="#ebedf0"><title>2026-03-19: 0 contributions</title></rect><rect x="718" y="78" width="12" height="12" rx="2" ry="2" fill="#ebedf0"><title>2026-03-20: 0 contributions</title></rect><rect x="718" y="93" width="12" height="12" rx="2" ry="2" fill="#ebedf0"><title>2026-03-21: 0 contributions</title></rect><rect x="718" y="108" width="12" height="12" rx="2" ry="2" fill="#9be9a8"><title>2026-03-22: 24 contributions</title></rect><rect x="733" y="18" width="12" height="12" rx="2" ry="2" fill="#ebedf0"><title>2026-03-23: 0 contributions</title></rect><rect x="733" y="33" width="12" height="12" rx="2" ry="2" fill="#ebedf0"><title>2026-03-24: 0 contributions</title></rect><rect x="733" y="48" width="12" height="12" rx="2" ry="2" fill="#ebedf0"><title>2026-03-25: 0 contributions</title></rect><rect x="733" y="63" width="12" height="12" rx="2" ry="2" fill="#ebedf0"><title>2026-03-26: 0 contributions</title></rect><rect x="733" y="78" width="12" height="12" rx="2" ry="2" fill="#9be9a8"><title>2026-03-27: 5 contributions</title></rect><rect x="733" y="93" width="12" height="12" rx="2" ry="2" fill="#9be9a8"><title>2026-03-28: 8 contributions</title></rect><rect x="733" y="108" width="12" height="12" rx="2" ry="2" fill="#9be9a8"><title>2026-03-29: 2 contributions</title></rect><rect x="748" y="18" width="12" height="12" rx="2" ry="2" fill="#40c463"><title>2026-03-30: 50 contributions</title></rect><rect x="748" y="33" width="12" height="12" rx="2" ry="2" fill="#9be9a8"><title>2026-03-31: 6 contributions</title></rect><rect x="748" y="48" width="12" height="12" rx="2" ry="2" fill="#9be9a8"><title>2026-04-01: 2 contributions</title></rect><rect x="748" y="63" width="12" height="12" rx="2" ry="2" fill="#9be9a8"><title>2026-04-02: 6 contributions</title></rect><rect x="748" y="78" width="12" height="12" rx="2" ry="2" fill="#9be9a8"><title>2026-04-03: 29 contributions</title></rect><rect x="748" y="93" width="12" height="12" rx="2" ry="2" fill="#9be9a8"><title>2026-04-04: 13 contributions</title></rect><rect x="748" y="108" width="12" height="12" rx="2" ry="2" fill="#9be9a8"><title>2026-04-05: 12 contributions</title></rect><rect x="763" y="18" width="12" height="12" rx="2" ry="2" fill="#9be9a8"><title>2026-04-06: 7 contributions</title></rect><rect x="763" y="33" width="12" height="12" rx="2" ry="2" fill="#9be9a8"><title>2026-04-07: 2 contributions</title></rect><rect x="763" y="48" width="12" height="12" rx="2" ry="2" fill="#ebedf0"><title>2026-04-08: 0 contributions</title></rect><rect x="763" y="63" width="12" height="12" rx="2" ry="2" fill="#9be9a8"><title>2026-04-09: 6 contributions</title></rect><rect x="763" y="78" width="12" height="12" rx="2" ry="2" fill="#9be9a8"><title>2026-04-10: 10 contributions</title></rect><rect x="763" y="93" width="12" height="12" rx="2" ry="2" fill="#ebedf0"><title>2026-04-11: 0 contributions</title></rect><rect x="763" y="108" width="12" height="12" rx="2" ry="2" fill="#9be9a8"><title>2026-04-12: 27 contributions</title></rect><rect x="778" y="18" width="12" height="12" rx="2" ry="2" fill="#40c463"><title>2026-04-13: 46 contributions</title></rect><rect x="778" y="33" width="12" height="12" rx="2" ry="2" fill="#ebedf0"><title>2026-04-14: 0 contributions</title></rect><rect x="778" y="48" width="12" height="12" rx="2" ry="2" fill="#ebedf0"><title>2026-04-15: 0 contributions</title></rect><rect x="778" y="63" width="12" height="12" rx="2" ry="2" fill="#ebedf0"><title>2026-04-16: 0 contributions</title></rect><rect x="778" y="78" width="12" height="12" rx="2" ry="2" fill="#9be9a8"><title>2026-04-17: 3 contributions</title></rect><rect x="778" y="93" width="12" height="12" rx="2" ry="2" fill="#9be9a8"><title>2026-04-18: 6 contributions</title></rect><rect x="778" y="108" width="12" height="12" rx="2" ry="2" fill="#9be9a8"><title>2026-04-19: 4 contributions</title></rect><rect x="793" y="18" width="12" height="12" rx="2" ry="2" fill="#9be9a8"><title>2026-04-20: 30 contributions</title></rect></svg>